HIERARCHY
ROOT Hips
{
	OFFSET 0.000000 0.000000 0.000000
	CHANNELS 6 Xposition Yposition Zposition Xrotation Yrotation Zrotation
	JOINT LeftUpLeg_virtual
	{
		OFFSET 0.000000 0.000000 0.000000
		CHANNELS 3 Xrotation Yrotation Zrotation
		JOINT LeftUpLeg
		{
			OFFSET 15.427100 -6.655098 0.678600
			CHANNELS 3 Xrotation Yrotation Zrotation
			JOINT LeftLeg
			{
				OFFSET 4.081073 -39.591068 13.024000
				CHANNELS 3 Xrotation Yrotation Zrotation
				JOINT LeftFoot
				{
					OFFSET -4.081074 -37.707932 -15.979700
					CHANNELS 3 Xrotation Yrotation Zrotation
					JOINT LeftToeBase
					{
						OFFSET 5.346399 -15.068900 20.645000
						CHANNELS 3 Xrotation Yrotation Zrotation
						JOINT LeftToe_End
						{
							OFFSET 2.754700 0.931300 11.300900
							CHANNELS 3 Xrotation Yrotation Zrotation
							End Site
							{
								OFFSET 0 0 0
							}
						}
					}
				}
			}
		}
	}
	JOINT RightUpLeg_virtual
	{
		OFFSET 0.000000 0.000000 0.000000
		CHANNELS 3 Xrotation Yrotation Zrotation
		JOINT RightUpLeg
		{
			OFFSET -15.569500 -6.655098 0.678600
			CHANNELS 3 Xrotation Yrotation Zrotation
			JOINT RightLeg
			{
				OFFSET -4.081825 -39.591045 13.023800
				CHANNELS 3 Xrotation Yrotation Zrotation
				JOINT RightFoot
				{
					OFFSET 4.081824 -37.707954 -15.979600
					CHANNELS 3 Xrotation Yrotation Zrotation
					JOINT RightToeBase
					{
						OFFSET -5.346400 -15.068900 20.645000
						CHANNELS 3 Xrotation Yrotation Zrotation
						JOINT RightToe_End
						{
							OFFSET -2.754700 0.931300 11.300900
							CHANNELS 3 Xrotation Yrotation Zrotation
							End Site
							{
								OFFSET 0 0 0
							}
						}
					}
				}
			}
		}
	}
	JOINT Spine_virtual
	{
		OFFSET 0.000000 0.000000 0.000000
		CHANNELS 3 Xrotation Yrotation Zrotation
		JOINT Spine
		{
			OFFSET -0.279200 12.230698 -2.892100
			CHANNELS 3 Xrotation Yrotation Zrotation
			JOINT Spine1
			{
				OFFSET -0.232667 10.192268 -1.242267
				CHANNELS 3 Xrotation Yrotation Zrotation
				JOINT Spine1_split
				{
					OFFSET -0.232667 10.192268 -1.242267
					CHANNELS 3 Xrotation Yrotation Zrotation
					JOINT Spine2
					{
						OFFSET -0.232667 10.192268 -1.242267
						CHANNELS 3 Xrotation Yrotation Zrotation
						JOINT Neck_virtual
						{
							OFFSET 0.000000 0.000000 0.000000
							CHANNELS 3 Xrotation Yrotation Zrotation
							JOINT Neck
							{
								OFFSET -0.418800 17.814194 8.416900
								CHANNELS 3 Xrotation Yrotation Zrotation
								JOINT Head
								{
									OFFSET 0.000000 7.031097 3.806800
									CHANNELS 3 Xrotation Yrotation Zrotation
									JOINT HeadTop_End
									{
										OFFSET 0.000000 24.646606 12.978600
										CHANNELS 3 Xrotation Yrotation Zrotation
										End Site
										{
											OFFSET 0 0 0
										}
									}
								}
							}
						}
						JOINT LeftShoulder_virtual
						{
							OFFSET 0.000000 0.000000 0.000000
							CHANNELS 3 Xrotation Yrotation Zrotation
							JOINT LeftShoulder
							{
								OFFSET 8.476499 7.247704 -3.868750
								CHANNELS 3 Xrotation Yrotation Zrotation
								JOINT LeftShoulder_split
								{
									OFFSET 8.476499 7.247704 -3.868750
									CHANNELS 3 Xrotation Yrotation Zrotation
									JOINT LeftArm
									{
										OFFSET 9.308998 -2.777710 0.208600
										CHANNELS 3 Xrotation Yrotation Zrotation
										JOINT LeftForeArm
										{
											OFFSET 29.972298 0.000000 0.000000
											CHANNELS 3 Xrotation Yrotation Zrotation
											JOINT LeftHand
											{
												OFFSET 26.026505 0.000000 0.000000
												CHANNELS 3 Xrotation Yrotation Zrotation
												End Site
												{
													OFFSET 0 0 0
												}
											}
										}
									}
								}
							}
						}
						JOINT RightShoulder_virtual
						{
							OFFSET 0.000000 0.000000 0.000000
							CHANNELS 3 Xrotation Yrotation Zrotation
							JOINT RightShoulder
							{
								OFFSET -7.570500 7.247704 -3.868750
								CHANNELS 3 Xrotation Yrotation Zrotation
								JOINT RightShoulder_split
								{
									OFFSET -7.570500 7.247704 -3.868750
									CHANNELS 3 Xrotation Yrotation Zrotation
									JOINT RightArm
									{
										OFFSET -9.308998 -2.777710 0.208500
										CHANNELS 3 Xrotation Yrotation Zrotation
										JOINT RightForeArm
										{
											OFFSET -29.972300 0.000000 0.000000
											CHANNELS 3 Xrotation Yrotation Zrotation
											JOINT RightHand
											{
												OFFSET -26.026505 0.000000 0.000000
												CHANNELS 3 Xrotation Yrotation Zrotation
												End Site
												{
													OFFSET 0 0 0
												}
											}
										}
									}
								}
							}
						}
					}
				}
			}
		}
	}
}
MOTION
Frames: 4
Frame Time: 0.03333333
11.930427 36.247192 -6.180744 0.000000 0.000000 0.000000 1.928780 -33.576582 9.564379 -78.972143 -20.552452 54.893243 66.930301 12.400409 -6.596137 42.158110 -3.175542 -10.893885 -0.002109 -0.000004 -0.002622 0.000000 0.000000 0.000000 1.928780 -33.576582 9.564379 -2.446941 4.650412 -26.461423 102.203904 15.504328 1.569357 15.176682 2.187760 16.075530 50.481727 -3.023458 -9.121905 0.000000 0.000000 0.000000 1.928780 -33.576582 9.564379 3.590126 -1.022136 -4.794535 2.844911 -4.152758 -2.149814 0.000000 0.000000 0.000000 0.000000 0.000000 0.000000 2.768606 -4.212015 -2.111294 0.463157 2.837771 2.357654 0.012651 15.814932 4.562045 0.000000 0.000000 0.000000 2.768606 -4.212015 -2.111294 1.530165 -0.744391 -1.917311 0.000000 0.000000 0.000000 -3.271987 -12.105438 -51.033032 -0.000929 -88.077352 -0.000903 0.000000 0.000000 0.000000 2.768606 -4.212015 -2.111294 5.560239 17.956438 2.651592 0.000000 0.000000 0.000000 -32.494430 -15.150550 39.610285 -179.999786 85.307143 179.999814 0.000000 0.000000 0.000000 
11.871558 36.256325 -6.194462 0.000000 0.000000 0.000000 2.075213 -33.543595 9.728786 -79.024100 -20.380776 55.008021 66.836311 12.425043 -6.707600 42.195577 -3.110554 -10.806864 -0.002083 -0.000004 -0.002575 0.000000 0.000000 0.000000 2.075213 -33.543595 9.728786 -2.615809 4.647770 -26.382357 102.288291 15.475769 1.564412 15.029370 2.149951 15.897508 50.823817 -2.981709 -8.893915 0.000000 0.000000 0.000000 2.075213 -33.543595 9.728786 3.560513 -0.954006 -5.062167 2.810493 -4.080796 -2.306022 0.000000 0.000000 0.000000 0.000000 0.000000 0.000000 2.744170 -4.136566 -2.266376 0.495816 2.875333 2.696921 -0.557785 16.320426 5.115394 0.000000 0.000000 0.000000 2.744170 -4.136566 -2.266376 1.480361 -0.701459 -1.238073 0.000000 0.000000 0.000000 -3.264499 -12.231476 -51.554322 -0.006145 -88.164847 -0.006225 0.000000 0.000000 0.000000 2.744170 -4.136566 -2.266376 5.526698 18.040669 3.182611 0.000000 0.000000 0.000000 -31.850924 -14.060276 37.299550 -179.999814 81.908373 179.999841 0.000000 0.000000 0.000000 
11.800436 36.270103 -6.213039 0.000000 0.000000 0.000000 2.174104 -33.452347 9.845472 -78.990947 -20.266706 55.131941 66.745940 12.478931 -6.911898 42.210678 -3.168671 -10.708588 -0.001986 -0.000004 -0.002455 0.000000 0.000000 0.000000 2.174104 -33.452347 9.845472 -2.735811 4.556158 -26.269859 102.278558 15.434846 1.562464 15.061930 2.150572 15.840365 51.008211 -2.952163 -8.710094 0.000000 0.000000 0.000000 2.174104 -33.452347 9.845472 3.531804 -0.929809 -5.316524 2.778900 -4.047165 -2.456910 0.000000 0.000000 0.000000 0.000000 0.000000 0.000000 2.720405 -4.100481 -2.416175 0.470072 2.870173 3.024353 -0.854838 16.670321 5.416156 0.000000 0.000000 0.000000 2.720405 -4.100481 -2.416175 1.394877 -0.547430 -0.756150 0.000000 0.000000 0.000000 -3.173321 -12.400883 -51.843410 -0.005920 -88.301765 -0.005776 0.000000 0.000000 0.000000 2.720405 -4.100481 -2.416175 5.516185 18.164646 3.729360 0.000000 0.000000 0.000000 -31.699601 -13.049962 35.547183 -179.999855 79.055061 179.999868 0.000000 0.000000 0.000000 
11.714997 36.291130 -6.233540 0.000000 0.000000 0.000000 2.161961 -33.330333 9.836913 -78.803376 -20.253080 55.315325 66.667496 12.557534 -7.208734 42.211409 -3.337192 -10.602602 -0.001896 0.000009 -0.002318 0.000000 0.000000 0.000000 2.161961 -33.330333 9.836913 -2.730867 4.421003 -26.084091 102.159474 15.348856 1.590233 15.274420 2.188669 15.882097 51.000333 -2.943797 -8.621178 0.000000 0.000000 0.000000 2.161961 -33.330333 9.836913 3.538388 -0.920315 -5.558432 2.778294 -4.029407 -2.594783 0.000000 0.000000 0.000000 0.000000 0.000000 0.000000 2.726739 -4.080768 -2.553045 0.351662 2.796481 3.369865 -0.812940 16.795066 5.468352 0.000000 0.000000 0.000000 2.726739 -4.080768 -2.553045 1.305361 -0.378402 -0.327619 0.000000 0.000000 0.000000 -3.074693 -12.555264 -52.027262 0.004179 -88.472226 0.004116 0.000000 0.000000 0.000000 2.726739 -4.080768 -2.553045 5.517663 18.291685 4.317714 0.000000 0.000000 0.000000 -31.107475 -11.715383 33.989648 -179.999855 76.485319 179.999855 0.000000 0.000000 0.000000 
